<svg width="304" height="304" viewBox="0 0 304 304" fill="none" xmlns="http://www.w3.org/2000/svg">
<g clip-path="url(#clip0_8996_462)">
<path d="M233.858 0H69.9733C31.3281 0 0 31.3281 0 69.9733V233.858C0 272.504 31.3281 303.832 69.9733 303.832H233.858C272.504 303.832 303.832 272.504 303.832 233.858V69.9733C303.832 31.3281 272.504 0 233.858 0Z" fill="black"/>
<path fill-rule="evenodd" clip-rule="evenodd" d="M94.7433 43.605C94.8879 45.3428 95.7215 46.8377 96.2556 48.3229C98.4103 54.3161 102.467 65.3273 105.123 70.6068L111.356 83.0652C112.093 84.4381 112.821 85.6552 113.641 87.0104C116.921 92.4322 119.671 96.9521 123.646 101.927L129.506 108.894C135.592 116.524 150.363 126.405 158.822 129.786C177.567 137.28 191.512 137.426 211.653 137.426C214.53 137.426 215.821 137.059 218.617 137.059L192.681 112.787L179.348 98.2661C167.75 83.7871 160.855 75.5492 153.117 57.4297C146.454 41.8302 145.19 42.505 123.696 42.505C113.596 42.505 104.592 43.605 94.7433 43.605Z" fill="#B8860B"/>
<path fill-rule="evenodd" clip-rule="evenodd" d="M71.6546 174.076C71.6546 179.658 86.7756 176.395 89.7119 176.884C94.9327 177.753 106.268 186.17 111.235 186.17C113.541 186.17 119.101 182.889 121.251 181.892C124.123 180.56 129.646 178.107 132.858 178.107C137.025 178.107 140.554 185.602 140.554 190.201C140.554 195.752 138.522 202.761 135.861 207.131C133.967 210.242 129.504 217.824 125.895 218.787L133.225 219.887C144.591 219.887 151.808 209.822 156.753 201.636L163.638 187.63C167.482 179.825 171.534 170.077 178.731 179.145C179.8 180.491 181.013 182.449 181.845 184.094L184.528 189.473C185.241 190.917 186.727 193.734 187.099 195.332C193.071 194.835 196.994 181.414 196.994 174.442C196.994 166.264 197.017 156.484 186.732 156.484C179.411 156.484 175.075 163.447 165.842 163.447C160.894 163.447 159.979 150.731 159.979 146.955C157.774 147.004 156.42 147.688 153.748 147.688C137.549 147.688 131.673 147.337 115.542 144.115C109.548 142.917 102.186 140.937 96.9307 138.538C95.7925 138.018 95.3723 137.864 94.2596 137.178C89.992 134.545 90.3271 136.211 89.0953 140.575C84.9197 155.364 71.6546 168.418 71.6546 174.076Z" fill="#B8860B"/>
<path fill-rule="evenodd" clip-rule="evenodd" d="M240.973 141.458C246.739 137.597 251.235 118.409 251.235 109.573C251.235 94.2983 247.673 84.5919 239.423 74.4744L234.836 69.5327C233.748 68.4321 233.201 68.1071 232.096 67.142C223.914 60.0014 210.447 53.765 200.006 50.8546C197.637 50.1942 194.728 49.3734 192.237 48.7287C184.239 46.659 166.025 43.9715 158.146 43.9715L160.973 52.1401C163.814 59.2693 168.99 67.9317 173.099 74.0968C178.319 81.9276 186.68 92.3969 193.245 99.0293C194.323 100.119 194.678 100.86 195.798 101.974L217.429 122.488C221.898 126.459 236.904 138.733 240.973 141.458Z" fill="#B8860B"/>
<path fill-rule="evenodd" clip-rule="evenodd" d="M115.267 230.515C108.877 230.515 102.52 229.275 97.9299 227.328C94.9167 226.051 87.1608 221.592 86.3138 218.421H85.5811C83.0314 229.365 81.916 224.942 81.916 240.044C81.916 248.057 87.0194 255.288 93.0618 259.683C107.863 270.45 135.815 266.987 151.798 258.983C164.141 252.803 175.859 244.015 180.364 230.377C181.142 228.024 182.027 225.361 182.285 222.769C183.001 215.57 182.545 219.117 182.338 214.02C182.136 209.052 179.916 202.679 178.294 199.006C177.833 197.964 177.357 196.681 176.848 195.688C176.047 194.128 172.462 187.725 171.34 186.902C171.34 195.565 170.958 199.286 165.993 206.476C156.021 220.914 133.256 230.515 115.267 230.515Z" fill="#B8860B"/>
<path fill-rule="evenodd" clip-rule="evenodd" d="M52.5972 51.6679C52.5972 66.7892 59.6985 80.4863 67.623 92.3481C69.0672 94.51 70.5154 96.67 72.1753 98.7904C85.0702 115.263 100.905 129.131 121.175 135.916C131.911 139.509 143.626 140.407 154.847 137.793C154.206 136.917 148.801 134.29 147.392 133.521C142.022 130.588 131.241 122.883 127.087 118.643C124.998 116.511 122.974 115.287 121.13 112.871C119.585 110.846 117.31 108.827 115.578 106.695L108.009 96.673C107.172 95.4107 106.506 94.4142 105.664 93.1538C96.2853 79.0928 88.5078 60.2177 85.0846 43.3677C84.6975 41.462 85.3798 41.9618 81.9704 40.618C77.1815 38.7307 71.7649 37.3741 66.1568 37.3741C57.9545 37.3741 52.5972 43.494 52.5972 51.6679Z" fill="#B8860B"/>
<path fill-rule="evenodd" clip-rule="evenodd" d="M168.774 151.72C172.625 151.399 179.089 145.735 191.866 152.083C194.261 153.273 197.755 155.645 199.452 157.691C204.5 163.775 207.256 168.612 207.256 177.374C207.256 189.342 197.855 199.021 190.456 203.82C188.033 205.392 188.748 207.129 188.035 212.027C187.097 218.471 186.487 236.012 195.895 236.012C209.676 236.012 223.68 213.98 230.049 203.466C234.095 196.788 239.507 181.898 239.507 173.342V168.944C239.507 149.754 221.557 142.557 205.057 142.557C194.773 142.557 191.427 142.816 181.339 144.494C179.774 144.754 169.346 146.324 168.6 147.518C167.84 148.732 168.095 150.435 168.774 151.72Z" fill="#B8860B"/>
<path fill-rule="evenodd" clip-rule="evenodd" d="M80.4502 193.133C80.4502 197.875 80.4086 199.456 82.4311 203.979C92.4625 226.409 134.325 211.331 134.325 196.065C134.325 193.072 131.626 187.552 129.193 186.902C128.054 191.17 119.584 192.766 115.267 192.766C106.592 192.766 95.114 190.174 88.9402 186.109C87.3313 185.049 86.8473 183.512 84.9609 184.403C82.5342 185.549 80.4502 189.609 80.4502 193.133Z" fill="#B8860B"/>
</g>
<defs>
<clipPath id="clip0_8996_462">
<rect width="303.832" height="303.832" fill="white"/>
</clipPath>
</defs>
</svg>
